<svg id="Layer_1" data-name="Layer 1" xmlns="http://www.w3.org/2000/svg" xmlns:xlink="http://www.w3.org/1999/xlink" viewBox="0 0 74.62 74.66"><defs><style>.cls-1,.cls-2,.cls-5{fill:none;}.cls-2,.cls-5{stroke:#00a1c4;stroke-miterlimit:10;}.cls-2{stroke-width:0.85px;}.cls-3{opacity:0.6;}.cls-4{clip-path:url(#clip-path);}.cls-5{stroke-width:0.85px;}.cls-6{clip-path:url(#clip-path-2);}.cls-7{clip-path:url(#clip-path-3);}.cls-8{clip-path:url(#clip-path-4);}.cls-9{clip-path:url(#clip-path-5);}.cls-10{clip-path:url(#clip-path-6);}</style><clipPath id="clip-path"><path id="SVGID" class="cls-1" d="M37.32,67.63,52.38,59V41.65L37.32,33Z"/></clipPath><clipPath id="clip-path-2"><line id="SVGID-2" data-name="SVGID" class="cls-2" x1="37.32" y1="32.99" x2="37.32" y2="67.63"/></clipPath><clipPath id="clip-path-3"><path id="SVGID-3" data-name="SVGID" class="cls-1" d="M7.18,15.68V33l15.07,8.66L37.31,33Z"/></clipPath><clipPath id="clip-path-4"><line id="SVGID-4" data-name="SVGID" class="cls-2" x1="37.31" y1="33" x2="7.18" y2="15.68"/></clipPath><clipPath id="clip-path-5"><path id="SVGID-5" data-name="SVGID" class="cls-1" d="M67.44,15.68,52.38,7,37.31,15.68V33Z"/></clipPath><clipPath id="clip-path-6"><line id="SVGID-6" data-name="SVGID" class="cls-2" x1="37.31" y1="33" x2="67.44" y2="15.68"/></clipPath></defs><title>blue icon</title><g class="cls-3"><g class="cls-4"><line class="cls-5" x1="37.52" y1="30.34" x2="39.36" y2="28.48"/><line class="cls-5" x1="31.45" y1="33.3" x2="33.29" y2="31.45"/><line class="cls-5" x1="34.48" y1="33.28" x2="36.32" y2="31.43"/><line class="cls-5" x1="37.57" y1="39.4" x2="39.41" y2="37.55"/><line class="cls-5" x1="37.58" y1="36.33" x2="39.42" y2="34.48"/><line class="cls-5" x1="37.55" y1="33.27" x2="39.39" y2="31.42"/><line class="cls-5" x1="40.64" y1="39.39" x2="42.48" y2="37.53"/><line class="cls-5" x1="40.64" y1="36.32" x2="42.48" y2="34.47"/><line class="cls-5" x1="40.79" y1="33.11" x2="42.63" y2="31.26"/><line class="cls-5" x1="43.72" y1="36.3" x2="45.56" y2="34.45"/><line class="cls-5" x1="43.73" y1="33.24" x2="45.57" y2="31.38"/><line class="cls-5" x1="43.87" y1="39.23" x2="45.72" y2="37.38"/><line class="cls-5" x1="46.82" y1="39.35" x2="48.66" y2="37.5"/><line class="cls-5" x1="49.88" y1="39.34" x2="51.72" y2="37.49"/><line class="cls-5" x1="34.53" y1="42.57" x2="36.37" y2="40.72"/><line class="cls-5" x1="37.62" y1="48.69" x2="39.46" y2="46.84"/><line class="cls-5" x1="37.63" y1="45.62" x2="39.47" y2="43.77"/><line class="cls-5" x1="37.6" y1="42.56" x2="39.44" y2="40.71"/><line class="cls-5" x1="40.68" y1="48.68" x2="42.52" y2="46.82"/><line class="cls-5" x1="40.69" y1="45.61" x2="42.53" y2="43.76"/><line class="cls-5" x1="40.84" y1="42.4" x2="42.68" y2="40.55"/><line class="cls-5" x1="43.77" y1="45.59" x2="45.61" y2="43.74"/><line class="cls-5" x1="43.78" y1="42.53" x2="45.62" y2="40.67"/><line class="cls-5" x1="43.92" y1="48.52" x2="45.76" y2="46.67"/><line class="cls-5" x1="46.87" y1="48.64" x2="48.71" y2="46.79"/><line class="cls-5" x1="46.88" y1="45.58" x2="48.72" y2="43.72"/><line class="cls-5" x1="46.84" y1="42.51" x2="48.68" y2="40.66"/><line class="cls-5" x1="49.94" y1="45.56" x2="51.78" y2="43.71"/><line class="cls-5" x1="49.88" y1="42.49" x2="51.72" y2="40.64"/><line class="cls-5" x1="50.02" y1="48.49" x2="51.86" y2="46.64"/><line class="cls-5" x1="52.97" y1="48.61" x2="54.81" y2="46.76"/><line class="cls-5" x1="52.98" y1="45.54" x2="54.82" y2="43.69"/><line class="cls-5" x1="52.94" y1="42.48" x2="54.78" y2="40.63"/><line class="cls-5" x1="56.03" y1="48.6" x2="57.87" y2="46.75"/><line class="cls-5" x1="31.57" y1="57.79" x2="33.41" y2="55.94"/><line class="cls-5" x1="34.63" y1="57.77" x2="36.47" y2="55.92"/><line class="cls-5" x1="34.72" y1="57.64" x2="36.56" y2="55.78"/><line class="cls-5" x1="37.67" y1="57.76" x2="39.51" y2="55.91"/><line class="cls-5" x1="37.68" y1="54.69" x2="39.52" y2="52.84"/><line class="cls-5" x1="37.64" y1="51.62" x2="39.48" y2="49.77"/><line class="cls-5" x1="40.73" y1="57.74" x2="42.57" y2="55.89"/><line class="cls-5" x1="40.74" y1="54.67" x2="42.58" y2="52.82"/><line class="cls-5" x1="40.88" y1="51.47" x2="42.72" y2="49.62"/><line class="cls-5" x1="43.82" y1="54.66" x2="45.66" y2="52.81"/><line class="cls-5" x1="43.83" y1="51.59" x2="45.67" y2="49.74"/><line class="cls-5" x1="43.97" y1="57.59" x2="45.81" y2="55.74"/><line class="cls-5" x1="46.91" y1="57.71" x2="48.75" y2="55.86"/><line class="cls-5" x1="46.92" y1="54.64" x2="48.76" y2="52.79"/><line class="cls-5" x1="46.89" y1="51.58" x2="48.73" y2="49.72"/><line class="cls-5" x1="49.99" y1="54.63" x2="51.83" y2="52.78"/><line class="cls-5" x1="49.93" y1="51.56" x2="51.77" y2="49.71"/><line class="cls-5" x1="50.07" y1="57.56" x2="51.91" y2="55.7"/><line class="cls-5" x1="53.01" y1="57.68" x2="54.85" y2="55.83"/><line class="cls-5" x1="53.02" y1="54.61" x2="54.86" y2="52.76"/><line class="cls-5" x1="52.99" y1="51.54" x2="54.83" y2="49.69"/><line class="cls-5" x1="56.09" y1="54.6" x2="57.93" y2="52.74"/><line class="cls-5" x1="56.19" y1="51.39" x2="58.03" y2="49.54"/><line class="cls-5" x1="31.63" y1="64.2" x2="33.47" y2="62.35"/><line class="cls-5" x1="31.59" y1="61.14" x2="33.43" y2="59.28"/><line class="cls-5" x1="34.68" y1="67.25" x2="36.52" y2="65.4"/><line class="cls-5" x1="34.69" y1="64.19" x2="36.53" y2="62.34"/><line class="cls-5" x1="34.62" y1="64.19" x2="36.46" y2="62.34"/><line class="cls-5" x1="34.63" y1="61.12" x2="36.47" y2="59.27"/><line class="cls-5" x1="34.77" y1="67.12" x2="36.61" y2="65.27"/><line class="cls-5" x1="37.72" y1="67.24" x2="39.56" y2="65.39"/><line class="cls-5" x1="37.73" y1="64.17" x2="39.57" y2="62.32"/><line class="cls-5" x1="37.69" y1="61.1" x2="39.53" y2="59.25"/><line class="cls-5" x1="40.78" y1="67.22" x2="42.62" y2="65.37"/><line class="cls-5" x1="40.79" y1="64.16" x2="42.63" y2="62.3"/><line class="cls-5" x1="40.93" y1="60.95" x2="42.77" y2="59.1"/><line class="cls-5" x1="43.87" y1="64.14" x2="45.71" y2="62.29"/><line class="cls-5" x1="43.88" y1="61.07" x2="45.72" y2="59.22"/><line class="cls-5" x1="44.02" y1="67.07" x2="45.86" y2="65.22"/><line class="cls-5" x1="46.96" y1="67.19" x2="48.8" y2="65.34"/><line class="cls-5" x1="46.97" y1="64.12" x2="48.81" y2="62.27"/><line class="cls-5" x1="46.94" y1="61.06" x2="48.78" y2="59.2"/><line class="cls-5" x1="50.04" y1="64.11" x2="51.88" y2="62.26"/><line class="cls-5" x1="49.97" y1="64.11" x2="51.81" y2="62.26"/><line class="cls-5" x1="49.98" y1="61.04" x2="51.82" y2="59.19"/><line class="cls-5" x1="53.07" y1="64.09" x2="54.91" y2="62.24"/><line class="cls-5" x1="53.04" y1="61.02" x2="54.88" y2="59.17"/><line class="cls-5" x1="34.68" y1="70.19" x2="36.52" y2="68.33"/><line class="cls-5" x1="37.77" y1="73.24" x2="39.61" y2="71.39"/><line class="cls-5" x1="37.74" y1="70.17" x2="39.58" y2="68.32"/><line class="cls-5" x1="40.98" y1="70.02" x2="42.82" y2="68.16"/><line class="cls-5" x1="43.92" y1="70.14" x2="45.76" y2="68.29"/></g></g><g class="cls-6"><line class="cls-2" x1="37.52" y1="30.34" x2="39.36" y2="28.48"/><line class="cls-2" x1="28.37" y1="36.38" x2="30.21" y2="34.53"/><line class="cls-2" x1="28.53" y1="39.31" x2="30.37" y2="37.46"/><line class="cls-2" x1="31.47" y1="39.43" x2="33.31" y2="37.58"/><line class="cls-2" x1="31.48" y1="36.37" x2="33.32" y2="34.51"/><line class="cls-2" x1="31.45" y1="33.3" x2="33.29" y2="31.45"/><line class="cls-2" x1="34.54" y1="39.42" x2="36.38" y2="37.57"/><line class="cls-2" x1="34.54" y1="36.35" x2="36.38" y2="34.5"/><line class="cls-2" x1="34.47" y1="36.35" x2="36.31" y2="34.5"/><line class="cls-2" x1="34.48" y1="33.28" x2="36.32" y2="31.43"/><line class="cls-2" x1="34.63" y1="39.28" x2="36.47" y2="37.43"/><line class="cls-2" x1="37.57" y1="39.4" x2="39.41" y2="37.55"/><line class="cls-2" x1="37.58" y1="36.33" x2="39.42" y2="34.48"/><line class="cls-2" x1="37.55" y1="33.27" x2="39.39" y2="31.42"/><line class="cls-2" x1="40.64" y1="39.39" x2="42.48" y2="37.53"/><line class="cls-2" x1="40.64" y1="36.32" x2="42.48" y2="34.47"/><line class="cls-2" x1="40.79" y1="33.11" x2="42.63" y2="31.26"/><line class="cls-2" x1="43.72" y1="36.3" x2="45.56" y2="34.45"/><line class="cls-2" x1="43.73" y1="33.24" x2="45.57" y2="31.38"/><line class="cls-2" x1="43.87" y1="39.23" x2="45.72" y2="37.38"/><line class="cls-2" x1="46.82" y1="39.35" x2="48.66" y2="37.5"/><line class="cls-2" x1="49.88" y1="39.34" x2="51.72" y2="37.49"/><line class="cls-2" x1="49.98" y1="39.2" x2="51.82" y2="37.35"/><line class="cls-2" x1="25.49" y1="42.48" x2="27.33" y2="40.63"/><line class="cls-2" x1="28.42" y1="45.67" x2="30.26" y2="43.82"/><line class="cls-2" x1="28.43" y1="42.6" x2="30.27" y2="40.75"/><line class="cls-2" x1="28.58" y1="48.6" x2="30.42" y2="46.75"/><line class="cls-2" x1="31.52" y1="48.72" x2="33.36" y2="46.87"/><line class="cls-2" x1="31.53" y1="45.66" x2="33.37" y2="43.8"/><line class="cls-2" x1="31.5" y1="42.59" x2="33.34" y2="40.74"/><line class="cls-2" x1="34.58" y1="48.71" x2="36.42" y2="46.86"/><line class="cls-2" x1="34.59" y1="45.64" x2="36.43" y2="43.79"/><line class="cls-2" x1="34.52" y1="45.64" x2="36.36" y2="43.79"/><line class="cls-2" x1="34.53" y1="42.57" x2="36.37" y2="40.72"/><line class="cls-2" x1="34.68" y1="48.57" x2="36.52" y2="46.72"/><line class="cls-2" x1="37.62" y1="48.69" x2="39.46" y2="46.84"/><line class="cls-2" x1="37.63" y1="45.62" x2="39.47" y2="43.77"/><line class="cls-2" x1="37.6" y1="42.56" x2="39.44" y2="40.71"/><line class="cls-2" x1="40.68" y1="48.68" x2="42.52" y2="46.82"/><line class="cls-2" x1="40.69" y1="45.61" x2="42.53" y2="43.76"/><line class="cls-2" x1="40.84" y1="42.4" x2="42.68" y2="40.55"/><line class="cls-2" x1="43.77" y1="45.59" x2="45.61" y2="43.74"/><line class="cls-2" x1="43.78" y1="42.53" x2="45.62" y2="40.67"/><line class="cls-2" x1="43.92" y1="48.52" x2="45.76" y2="46.67"/><line class="cls-2" x1="46.87" y1="48.64" x2="48.71" y2="46.79"/><line class="cls-2" x1="46.88" y1="45.58" x2="48.72" y2="43.72"/><line class="cls-2" x1="46.84" y1="42.51" x2="48.68" y2="40.66"/><line class="cls-2" x1="49.93" y1="48.63" x2="51.77" y2="46.78"/><line class="cls-2" x1="49.94" y1="45.56" x2="51.78" y2="43.71"/><line class="cls-2" x1="49.87" y1="45.56" x2="51.71" y2="43.71"/><line class="cls-2" x1="49.88" y1="42.49" x2="51.72" y2="40.64"/><line class="cls-2" x1="50.02" y1="48.49" x2="51.86" y2="46.64"/><line class="cls-2" x1="52.97" y1="48.61" x2="54.81" y2="46.76"/><line class="cls-2" x1="52.98" y1="45.54" x2="54.82" y2="43.69"/><line class="cls-2" x1="52.94" y1="42.48" x2="54.78" y2="40.63"/><line class="cls-2" x1="56.03" y1="48.6" x2="57.87" y2="46.75"/><line class="cls-2" x1="25.54" y1="51.55" x2="27.38" y2="49.7"/><line class="cls-2" x1="28.47" y1="54.74" x2="30.31" y2="52.89"/><line class="cls-2" x1="28.48" y1="51.67" x2="30.32" y2="49.82"/><line class="cls-2" x1="28.62" y1="57.67" x2="30.46" y2="55.82"/><line class="cls-2" x1="31.57" y1="57.79" x2="33.41" y2="55.94"/><line class="cls-2" x1="31.58" y1="54.72" x2="33.42" y2="52.87"/><line class="cls-2" x1="31.54" y1="51.65" x2="33.38" y2="49.8"/><line class="cls-2" x1="34.63" y1="57.77" x2="36.47" y2="55.92"/><line class="cls-2" x1="34.64" y1="54.71" x2="36.48" y2="52.85"/><line class="cls-2" x1="34.57" y1="54.71" x2="36.41" y2="52.85"/><line class="cls-2" x1="34.58" y1="51.64" x2="36.42" y2="49.79"/><line class="cls-2" x1="34.72" y1="57.64" x2="36.56" y2="55.78"/><line class="cls-2" x1="37.67" y1="57.76" x2="39.51" y2="55.91"/><line class="cls-2" x1="37.68" y1="54.69" x2="39.52" y2="52.84"/><line class="cls-2" x1="37.64" y1="51.62" x2="39.48" y2="49.77"/><line class="cls-2" x1="40.73" y1="57.74" x2="42.57" y2="55.89"/><line class="cls-2" x1="40.74" y1="54.67" x2="42.58" y2="52.82"/><line class="cls-2" x1="40.88" y1="51.47" x2="42.72" y2="49.62"/><line class="cls-2" x1="43.82" y1="54.66" x2="45.66" y2="52.81"/><line class="cls-2" x1="43.83" y1="51.59" x2="45.67" y2="49.74"/><line class="cls-2" x1="43.97" y1="57.59" x2="45.81" y2="55.74"/><line class="cls-2" x1="46.91" y1="57.71" x2="48.75" y2="55.86"/><line class="cls-2" x1="46.92" y1="54.64" x2="48.76" y2="52.79"/><line class="cls-2" x1="46.89" y1="51.58" x2="48.73" y2="49.72"/><line class="cls-2" x1="49.98" y1="57.69" x2="51.82" y2="55.84"/><line class="cls-2" x1="49.99" y1="54.63" x2="51.83" y2="52.78"/><line class="cls-2" x1="49.92" y1="54.63" x2="51.76" y2="52.78"/><line class="cls-2" x1="49.93" y1="51.56" x2="51.77" y2="49.71"/><line class="cls-2" x1="50.07" y1="57.56" x2="51.91" y2="55.7"/><line class="cls-2" x1="53.01" y1="57.68" x2="54.85" y2="55.83"/><line class="cls-2" x1="53.02" y1="54.61" x2="54.86" y2="52.76"/><line class="cls-2" x1="52.99" y1="51.54" x2="54.83" y2="49.69"/><line class="cls-2" x1="56.09" y1="54.6" x2="57.93" y2="52.74"/><line class="cls-2" x1="56.19" y1="51.39" x2="58.03" y2="49.54"/><line class="cls-2" x1="31.63" y1="64.2" x2="33.47" y2="62.35"/><line class="cls-2" x1="31.59" y1="61.14" x2="33.43" y2="59.28"/><line class="cls-2" x1="34.68" y1="67.25" x2="36.52" y2="65.4"/><line class="cls-2" x1="34.69" y1="64.19" x2="36.53" y2="62.34"/><line class="cls-2" x1="34.62" y1="64.19" x2="36.46" y2="62.34"/><line class="cls-2" x1="34.63" y1="61.12" x2="36.47" y2="59.27"/><line class="cls-2" x1="34.77" y1="67.12" x2="36.61" y2="65.27"/><line class="cls-2" x1="37.72" y1="67.24" x2="39.56" y2="65.39"/><line class="cls-2" x1="37.73" y1="64.17" x2="39.57" y2="62.32"/><line class="cls-2" x1="37.69" y1="61.1" x2="39.53" y2="59.25"/><line class="cls-2" x1="40.78" y1="67.22" x2="42.62" y2="65.37"/><line class="cls-2" x1="40.79" y1="64.16" x2="42.63" y2="62.3"/><line class="cls-2" x1="40.93" y1="60.95" x2="42.77" y2="59.1"/><line class="cls-2" x1="43.87" y1="64.14" x2="45.71" y2="62.29"/><line class="cls-2" x1="43.88" y1="61.07" x2="45.72" y2="59.22"/><line class="cls-2" x1="44.02" y1="67.07" x2="45.86" y2="65.22"/><line class="cls-2" x1="46.96" y1="67.19" x2="48.8" y2="65.34"/><line class="cls-2" x1="46.97" y1="64.12" x2="48.81" y2="62.27"/><line class="cls-2" x1="46.94" y1="61.06" x2="48.78" y2="59.2"/><line class="cls-2" x1="50.04" y1="64.11" x2="51.88" y2="62.26"/><line class="cls-2" x1="49.97" y1="64.11" x2="51.81" y2="62.26"/><line class="cls-2" x1="49.98" y1="61.04" x2="51.82" y2="59.19"/><line class="cls-2" x1="53.07" y1="64.09" x2="54.91" y2="62.24"/><line class="cls-2" x1="53.04" y1="61.02" x2="54.88" y2="59.17"/><line class="cls-2" x1="34.68" y1="70.19" x2="36.52" y2="68.33"/><line class="cls-2" x1="37.77" y1="73.24" x2="39.61" y2="71.39"/><line class="cls-2" x1="37.74" y1="70.17" x2="39.58" y2="68.32"/><line class="cls-2" x1="40.98" y1="70.02" x2="42.82" y2="68.16"/><line class="cls-2" x1="43.92" y1="70.14" x2="45.76" y2="68.29"/></g><line id="SVGID-7" data-name="SVGID" class="cls-2" x1="37.32" y1="32.99" x2="37.32" y2="67.63"/><g class="cls-3"><g class="cls-7"><line class="cls-5" x1="39.51" y1="34.51" x2="40.2" y2="37.02"/><line class="cls-5" x1="39.97" y1="27.79" x2="40.66" y2="30.3"/><line class="cls-5" x1="38.47" y1="30.41" x2="39.16" y2="32.92"/><line class="cls-5" x1="31.6" y1="30.01" x2="32.29" y2="32.53"/><line class="cls-5" x1="34.27" y1="31.56" x2="34.96" y2="34.07"/><line class="cls-5" x1="36.95" y1="33.06" x2="37.64" y2="35.57"/><line class="cls-5" x1="30.09" y1="32.66" x2="30.78" y2="35.18"/><line class="cls-5" x1="32.75" y1="34.21" x2="33.44" y2="36.72"/><line class="cls-5" x1="35.47" y1="35.93" x2="36.16" y2="38.44"/><line class="cls-5" x1="31.22" y1="36.87" x2="31.91" y2="39.38"/><line class="cls-5" x1="33.89" y1="38.41" x2="34.58" y2="40.92"/><line class="cls-5" x1="28.6" y1="35.53" x2="29.29" y2="38.05"/><line class="cls-5" x1="27.02" y1="38.01" x2="27.71" y2="40.52"/><line class="cls-5" x1="25.5" y1="40.66" x2="26.19" y2="43.17"/><line class="cls-5" x1="30.37" y1="25.81" x2="31.06" y2="28.32"/><line class="cls-5" x1="23.5" y1="25.41" x2="24.19" y2="27.92"/><line class="cls-5" x1="26.16" y1="26.95" x2="26.85" y2="29.47"/><line class="cls-5" x1="28.85" y1="28.46" x2="29.54" y2="30.97"/><line class="cls-5" x1="21.98" y1="28.06" x2="22.67" y2="30.57"/><line class="cls-5" x1="24.65" y1="29.6" x2="25.34" y2="32.12"/><line class="cls-5" x1="27.36" y1="31.33" x2="28.05" y2="33.84"/><line class="cls-5" x1="23.12" y1="32.26" x2="23.81" y2="34.78"/><line class="cls-5" x1="25.78" y1="33.81" x2="26.47" y2="36.32"/><line class="cls-5" x1="20.5" y1="30.93" x2="21.19" y2="33.44"/><line class="cls-5" x1="18.92" y1="33.41" x2="19.61" y2="35.92"/><line class="cls-5" x1="21.58" y1="34.95" x2="22.27" y2="37.46"/><line class="cls-5" x1="24.27" y1="36.46" x2="24.96" y2="38.97"/><line class="cls-5" x1="20.06" y1="37.6" x2="20.75" y2="40.11"/><line class="cls-5" x1="22.76" y1="39.08" x2="23.45" y2="41.59"/><line class="cls-5" x1="17.47" y1="36.21" x2="18.16" y2="38.72"/><line class="cls-5" x1="15.9" y1="38.68" x2="16.59" y2="41.2"/><line class="cls-5" x1="18.56" y1="40.23" x2="19.25" y2="42.74"/><line class="cls-5" x1="21.24" y1="41.73" x2="21.93" y2="44.24"/><line class="cls-5" x1="14.38" y1="41.33" x2="15.07" y2="43.85"/><line class="cls-5" x1="18.61" y1="15.64" x2="19.3" y2="18.16"/><line class="cls-5" x1="17.1" y1="18.29" x2="17.79" y2="20.81"/><line class="cls-5" x1="17.17" y1="18.44" x2="17.86" y2="20.95"/><line class="cls-5" x1="15.59" y1="20.92" x2="16.28" y2="23.43"/><line class="cls-5" x1="18.25" y1="22.46" x2="18.94" y2="24.97"/><line class="cls-5" x1="20.94" y1="23.97" x2="21.63" y2="26.48"/><line class="cls-5" x1="14.07" y1="23.57" x2="14.76" y2="26.08"/><line class="cls-5" x1="16.74" y1="25.11" x2="17.43" y2="27.62"/><line class="cls-5" x1="19.45" y1="26.84" x2="20.14" y2="29.35"/><line class="cls-5" x1="15.21" y1="27.77" x2="15.9" y2="30.28"/><line class="cls-5" x1="17.87" y1="29.31" x2="18.57" y2="31.83"/><line class="cls-5" x1="12.59" y1="26.44" x2="13.28" y2="28.95"/><line class="cls-5" x1="11.01" y1="28.92" x2="11.7" y2="31.43"/><line class="cls-5" x1="13.67" y1="30.46" x2="14.36" y2="32.97"/><line class="cls-5" x1="16.36" y1="31.96" x2="17.05" y2="34.48"/><line class="cls-5" x1="12.15" y1="33.11" x2="12.84" y2="35.62"/><line class="cls-5" x1="14.85" y1="34.59" x2="15.54" y2="37.1"/><line class="cls-5" x1="9.56" y1="31.72" x2="10.25" y2="34.23"/><line class="cls-5" x1="7.99" y1="34.19" x2="8.68" y2="36.7"/><line class="cls-5" x1="10.65" y1="35.73" x2="11.34" y2="38.25"/><line class="cls-5" x1="13.33" y1="37.24" x2="14.02" y2="39.75"/><line class="cls-5" x1="9.13" y1="38.38" x2="9.82" y2="40.9"/><line class="cls-5" x1="11.87" y1="40.07" x2="12.56" y2="42.58"/><line class="cls-5" x1="13.01" y1="12.49" x2="13.7" y2="15"/><line class="cls-5" x1="15.69" y1="13.99" x2="16.38" y2="16.5"/><line class="cls-5" x1="8.82" y1="13.59" x2="9.51" y2="16.11"/><line class="cls-5" x1="11.49" y1="15.14" x2="12.18" y2="17.65"/><line class="cls-5" x1="11.52" y1="15.08" x2="12.21" y2="17.59"/><line class="cls-5" x1="14.19" y1="16.62" x2="14.88" y2="19.13"/><line class="cls-5" x1="8.9" y1="13.74" x2="9.59" y2="16.26"/><line class="cls-5" x1="7.32" y1="16.22" x2="8.01" y2="18.73"/><line class="cls-5" x1="9.98" y1="17.76" x2="10.67" y2="20.27"/><line class="cls-5" x1="12.67" y1="19.27" x2="13.36" y2="21.78"/><line class="cls-5" x1="5.8" y1="18.87" x2="6.49" y2="21.38"/><line class="cls-5" x1="8.47" y1="20.41" x2="9.16" y2="22.92"/><line class="cls-5" x1="11.18" y1="22.14" x2="11.87" y2="24.65"/><line class="cls-5" x1="6.94" y1="23.07" x2="7.63" y2="25.59"/><line class="cls-5" x1="9.6" y1="24.62" x2="10.29" y2="27.13"/><line class="cls-5" x1="4.32" y1="21.74" x2="5.01" y2="24.25"/><line class="cls-5" x1="2.74" y1="24.22" x2="3.43" y2="26.73"/><line class="cls-5" x1="5.4" y1="25.76" x2="6.09" y2="28.27"/><line class="cls-5" x1="8.09" y1="27.27" x2="8.78" y2="29.78"/><line class="cls-5" x1="3.88" y1="28.41" x2="4.57" y2="30.92"/><line class="cls-5" x1="3.92" y1="28.35" x2="4.61" y2="30.86"/><line class="cls-5" x1="6.58" y1="29.89" x2="7.27" y2="32.4"/><line class="cls-5" x1="2.38" y1="31.04" x2="3.07" y2="33.55"/><line class="cls-5" x1="5.06" y1="32.54" x2="5.75" y2="35.05"/><line class="cls-5" x1="6.28" y1="12.13" x2="6.97" y2="14.64"/><line class="cls-5" x1="2.07" y1="13.27" x2="2.76" y2="15.78"/><line class="cls-5" x1="4.76" y1="14.78" x2="5.45" y2="17.29"/><line class="cls-5" x1="3.27" y1="17.65" x2="3.96" y2="20.16"/><line class="cls-5" x1="1.69" y1="20.12" x2="2.38" y2="22.64"/></g></g><g class="cls-8"><line class="cls-2" x1="39.51" y1="34.51" x2="40.2" y2="37.02"/><line class="cls-2" x1="38.83" y1="23.59" x2="39.52" y2="26.11"/><line class="cls-2" x1="36.2" y1="22.26" x2="36.9" y2="24.77"/><line class="cls-2" x1="34.63" y1="24.74" x2="35.32" y2="27.25"/><line class="cls-2" x1="37.29" y1="26.28" x2="37.98" y2="28.79"/><line class="cls-2" x1="39.97" y1="27.79" x2="40.66" y2="30.3"/><line class="cls-2" x1="33.11" y1="27.39" x2="33.8" y2="29.9"/><line class="cls-2" x1="35.77" y1="28.93" x2="36.46" y2="31.44"/><line class="cls-2" x1="35.81" y1="28.87" x2="36.5" y2="31.38"/><line class="cls-2" x1="38.47" y1="30.41" x2="39.16" y2="32.92"/><line class="cls-2" x1="33.18" y1="27.54" x2="33.87" y2="30.05"/><line class="cls-2" x1="31.6" y1="30.01" x2="32.29" y2="32.53"/><line class="cls-2" x1="34.27" y1="31.56" x2="34.96" y2="34.07"/><line class="cls-2" x1="36.95" y1="33.06" x2="37.64" y2="35.57"/><line class="cls-2" x1="30.09" y1="32.66" x2="30.78" y2="35.18"/><line class="cls-2" x1="32.75" y1="34.21" x2="33.44" y2="36.72"/><line class="cls-2" x1="35.47" y1="35.93" x2="36.16" y2="38.44"/><line class="cls-2" x1="31.22" y1="36.87" x2="31.91" y2="39.38"/><line class="cls-2" x1="33.89" y1="38.41" x2="34.58" y2="40.92"/><line class="cls-2" x1="28.6" y1="35.53" x2="29.29" y2="38.05"/><line class="cls-2" x1="27.02" y1="38.01" x2="27.71" y2="40.52"/><line class="cls-2" x1="25.5" y1="40.66" x2="26.19" y2="43.17"/><line class="cls-2" x1="25.58" y1="40.81" x2="26.27" y2="43.32"/><line class="cls-2" x1="34.97" y1="18.06" x2="35.66" y2="20.57"/><line class="cls-2" x1="30.73" y1="18.99" x2="31.42" y2="21.5"/><line class="cls-2" x1="33.39" y1="20.53" x2="34.08" y2="23.04"/><line class="cls-2" x1="28.1" y1="17.66" x2="28.79" y2="20.17"/><line class="cls-2" x1="26.52" y1="20.14" x2="27.21" y2="22.65"/><line class="cls-2" x1="29.19" y1="21.68" x2="29.88" y2="24.19"/><line class="cls-2" x1="31.87" y1="23.18" x2="32.56" y2="25.69"/><line class="cls-2" x1="25" y1="22.79" x2="25.69" y2="25.3"/><line class="cls-2" x1="27.67" y1="24.33" x2="28.36" y2="26.84"/><line class="cls-2" x1="27.7" y1="24.27" x2="28.39" y2="26.78"/><line class="cls-2" x1="30.37" y1="25.81" x2="31.06" y2="28.32"/><line class="cls-2" x1="25.08" y1="22.93" x2="25.77" y2="25.45"/><line class="cls-2" x1="23.5" y1="25.41" x2="24.19" y2="27.92"/><line class="cls-2" x1="26.16" y1="26.95" x2="26.85" y2="29.47"/><line class="cls-2" x1="28.85" y1="28.46" x2="29.54" y2="30.97"/><line class="cls-2" x1="21.98" y1="28.06" x2="22.67" y2="30.57"/><line class="cls-2" x1="24.65" y1="29.6" x2="25.34" y2="32.12"/><line class="cls-2" x1="27.36" y1="31.33" x2="28.05" y2="33.84"/><line class="cls-2" x1="23.12" y1="32.26" x2="23.81" y2="34.78"/><line class="cls-2" x1="25.78" y1="33.81" x2="26.47" y2="36.32"/><line class="cls-2" x1="20.5" y1="30.93" x2="21.19" y2="33.44"/><line class="cls-2" x1="18.92" y1="33.41" x2="19.61" y2="35.92"/><line class="cls-2" x1="21.58" y1="34.95" x2="22.27" y2="37.46"/><line class="cls-2" x1="24.27" y1="36.46" x2="24.96" y2="38.97"/><line class="cls-2" x1="17.4" y1="36.06" x2="18.09" y2="38.57"/><line class="cls-2" x1="20.06" y1="37.6" x2="20.75" y2="40.11"/><line class="cls-2" x1="20.1" y1="37.54" x2="20.79" y2="40.05"/><line class="cls-2" x1="22.76" y1="39.08" x2="23.45" y2="41.59"/><line class="cls-2" x1="17.47" y1="36.21" x2="18.16" y2="38.72"/><line class="cls-2" x1="15.9" y1="38.68" x2="16.59" y2="41.2"/><line class="cls-2" x1="18.56" y1="40.23" x2="19.25" y2="42.74"/><line class="cls-2" x1="21.24" y1="41.73" x2="21.93" y2="44.24"/><line class="cls-2" x1="14.38" y1="41.33" x2="15.07" y2="43.85"/><line class="cls-2" x1="27.06" y1="13.56" x2="27.75" y2="16.08"/><line class="cls-2" x1="22.82" y1="14.5" x2="23.51" y2="17.01"/><line class="cls-2" x1="25.48" y1="16.04" x2="26.17" y2="18.55"/><line class="cls-2" x1="20.19" y1="13.17" x2="20.88" y2="15.68"/><line class="cls-2" x1="18.61" y1="15.64" x2="19.3" y2="18.16"/><line class="cls-2" x1="21.28" y1="17.18" x2="21.97" y2="19.7"/><line class="cls-2" x1="23.96" y1="18.69" x2="24.65" y2="21.2"/><line class="cls-2" x1="17.1" y1="18.29" x2="17.79" y2="20.81"/><line class="cls-2" x1="19.76" y1="19.83" x2="20.45" y2="22.35"/><line class="cls-2" x1="19.79" y1="19.77" x2="20.48" y2="22.29"/><line class="cls-2" x1="22.46" y1="21.32" x2="23.15" y2="23.83"/><line class="cls-2" x1="17.17" y1="18.44" x2="17.86" y2="20.95"/><line class="cls-2" x1="15.59" y1="20.92" x2="16.28" y2="23.43"/><line class="cls-2" x1="18.25" y1="22.46" x2="18.94" y2="24.97"/><line class="cls-2" x1="20.94" y1="23.97" x2="21.63" y2="26.48"/><line class="cls-2" x1="14.07" y1="23.57" x2="14.76" y2="26.08"/><line class="cls-2" x1="16.74" y1="25.11" x2="17.43" y2="27.62"/><line class="cls-2" x1="19.45" y1="26.84" x2="20.14" y2="29.35"/><line class="cls-2" x1="15.21" y1="27.77" x2="15.9" y2="30.28"/><line class="cls-2" x1="17.87" y1="29.31" x2="18.57" y2="31.83"/><line class="cls-2" x1="12.59" y1="26.44" x2="13.28" y2="28.95"/><line class="cls-2" x1="11.01" y1="28.92" x2="11.7" y2="31.43"/><line class="cls-2" x1="13.67" y1="30.46" x2="14.36" y2="32.97"/><line class="cls-2" x1="16.36" y1="31.96" x2="17.05" y2="34.48"/><line class="cls-2" x1="9.49" y1="31.57" x2="10.18" y2="34.08"/><line class="cls-2" x1="12.15" y1="33.11" x2="12.84" y2="35.62"/><line class="cls-2" x1="12.19" y1="33.05" x2="12.88" y2="35.56"/><line class="cls-2" x1="14.85" y1="34.59" x2="15.54" y2="37.1"/><line class="cls-2" x1="9.56" y1="31.72" x2="10.25" y2="34.23"/><line class="cls-2" x1="7.99" y1="34.19" x2="8.68" y2="36.7"/><line class="cls-2" x1="10.65" y1="35.73" x2="11.34" y2="38.25"/><line class="cls-2" x1="13.33" y1="37.24" x2="14.02" y2="39.75"/><line class="cls-2" x1="9.13" y1="38.38" x2="9.82" y2="40.9"/><line class="cls-2" x1="11.87" y1="40.07" x2="12.56" y2="42.58"/><line class="cls-2" x1="13.01" y1="12.49" x2="13.7" y2="15"/><line class="cls-2" x1="15.69" y1="13.99" x2="16.38" y2="16.5"/><line class="cls-2" x1="8.82" y1="13.59" x2="9.51" y2="16.11"/><line class="cls-2" x1="11.49" y1="15.14" x2="12.18" y2="17.65"/><line class="cls-2" x1="11.52" y1="15.08" x2="12.21" y2="17.59"/><line class="cls-2" x1="14.19" y1="16.62" x2="14.88" y2="19.13"/><line class="cls-2" x1="8.9" y1="13.74" x2="9.59" y2="16.26"/><line class="cls-2" x1="7.32" y1="16.22" x2="8.01" y2="18.73"/><line class="cls-2" x1="9.98" y1="17.76" x2="10.67" y2="20.27"/><line class="cls-2" x1="12.67" y1="19.27" x2="13.36" y2="21.78"/><line class="cls-2" x1="5.8" y1="18.87" x2="6.49" y2="21.38"/><line class="cls-2" x1="8.47" y1="20.41" x2="9.16" y2="22.92"/><line class="cls-2" x1="11.18" y1="22.14" x2="11.87" y2="24.65"/><line class="cls-2" x1="6.94" y1="23.07" x2="7.63" y2="25.59"/><line class="cls-2" x1="9.6" y1="24.62" x2="10.29" y2="27.13"/><line class="cls-2" x1="4.32" y1="21.74" x2="5.01" y2="24.25"/><line class="cls-2" x1="2.74" y1="24.22" x2="3.43" y2="26.73"/><line class="cls-2" x1="5.4" y1="25.76" x2="6.09" y2="28.27"/><line class="cls-2" x1="8.09" y1="27.27" x2="8.78" y2="29.78"/><line class="cls-2" x1="3.88" y1="28.41" x2="4.57" y2="30.92"/><line class="cls-2" x1="3.92" y1="28.35" x2="4.61" y2="30.86"/><line class="cls-2" x1="6.58" y1="29.89" x2="7.27" y2="32.4"/><line class="cls-2" x1="2.38" y1="31.04" x2="3.07" y2="33.55"/><line class="cls-2" x1="5.06" y1="32.54" x2="5.75" y2="35.05"/><line class="cls-2" x1="6.28" y1="12.13" x2="6.97" y2="14.64"/><line class="cls-2" x1="2.07" y1="13.27" x2="2.76" y2="15.78"/><line class="cls-2" x1="4.76" y1="14.78" x2="5.45" y2="17.29"/><line class="cls-2" x1="3.27" y1="17.65" x2="3.96" y2="20.16"/><line class="cls-2" x1="1.69" y1="20.12" x2="2.38" y2="22.64"/></g><line id="SVGID-8" data-name="SVGID" class="cls-2" x1="37.31" y1="33" x2="7.18" y2="15.68"/><g class="cls-3"><g class="cls-9"><line class="cls-5" x1="34.9" y1="34.15" x2="32.37" y2="33.49"/><line class="cls-5" x1="40.52" y1="37.91" x2="37.99" y2="37.25"/><line class="cls-5" x1="38.98" y1="35.3" x2="36.45" y2="34.64"/><line class="cls-5" x1="42.76" y1="29.58" x2="40.23" y2="28.92"/><line class="cls-5" x1="40.09" y1="31.1" x2="37.56" y2="30.44"/><line class="cls-5" x1="37.44" y1="32.67" x2="34.91" y2="32"/><line class="cls-5" x1="41.22" y1="26.94" x2="38.69" y2="26.28"/><line class="cls-5" x1="38.54" y1="28.47" x2="36.01" y2="27.81"/><line class="cls-5" x1="35.69" y1="29.95" x2="33.15" y2="29.29"/><line class="cls-5" x1="36.99" y1="25.82" x2="34.46" y2="25.16"/><line class="cls-5" x1="34.32" y1="27.35" x2="31.79" y2="26.69"/><line class="cls-5" x1="39.46" y1="24.23" x2="36.93" y2="23.57"/><line class="cls-5" x1="38.1" y1="21.63" x2="35.57" y2="20.97"/><line class="cls-5" x1="36.55" y1="18.99" x2="34.02" y2="18.33"/><line class="cls-5" x1="47.04" y1="30.61" x2="44.51" y2="29.95"/><line class="cls-5" x1="50.82" y1="24.89" x2="48.29" y2="24.23"/><line class="cls-5" x1="48.15" y1="26.42" x2="45.62" y2="25.76"/><line class="cls-5" x1="45.49" y1="27.98" x2="42.96" y2="27.32"/><line class="cls-5" x1="49.27" y1="22.26" x2="46.74" y2="21.6"/><line class="cls-5" x1="46.6" y1="23.78" x2="44.07" y2="23.12"/><line class="cls-5" x1="43.74" y1="25.26" x2="41.21" y2="24.6"/><line class="cls-5" x1="45.05" y1="21.14" x2="42.52" y2="20.48"/><line class="cls-5" x1="42.38" y1="22.66" x2="39.85" y2="22"/><line class="cls-5" x1="47.52" y1="19.54" x2="44.99" y2="18.88"/><line class="cls-5" x1="46.15" y1="16.94" x2="43.62" y2="16.28"/><line class="cls-5" x1="43.48" y1="18.47" x2="40.95" y2="17.81"/><line class="cls-5" x1="40.83" y1="20.03" x2="38.3" y2="19.37"/><line class="cls-5" x1="41.94" y1="15.83" x2="39.41" y2="15.17"/><line class="cls-5" x1="39.3" y1="17.42" x2="36.77" y2="16.76"/><line class="cls-5" x1="44.44" y1="14.3" x2="41.91" y2="13.64"/><line class="cls-5" x1="43.08" y1="11.7" x2="40.55" y2="11.04"/><line class="cls-5" x1="40.4" y1="13.22" x2="37.87" y2="12.56"/><line class="cls-5" x1="37.75" y1="14.78" x2="35.22" y2="14.12"/><line class="cls-5" x1="41.53" y1="9.06" x2="39" y2="8.4"/><line class="cls-5" x1="61.76" y1="25.56" x2="59.23" y2="24.9"/><line class="cls-5" x1="60.21" y1="22.93" x2="57.68" y2="22.27"/><line class="cls-5" x1="60.05" y1="22.92" x2="57.52" y2="22.26"/><line class="cls-5" x1="58.68" y1="20.32" x2="56.15" y2="19.66"/><line class="cls-5" x1="56.01" y1="21.84" x2="53.48" y2="21.18"/><line class="cls-5" x1="53.36" y1="23.41" x2="50.83" y2="22.74"/><line class="cls-5" x1="57.13" y1="17.68" x2="54.6" y2="17.02"/><line class="cls-5" x1="54.46" y1="19.21" x2="51.93" y2="18.55"/><line class="cls-5" x1="51.6" y1="20.69" x2="49.07" y2="20.03"/><line class="cls-5" x1="52.91" y1="16.56" x2="50.38" y2="15.9"/><line class="cls-5" x1="50.24" y1="18.09" x2="47.71" y2="17.43"/><line class="cls-5" x1="55.38" y1="14.97" x2="52.85" y2="14.31"/><line class="cls-5" x1="54.02" y1="12.37" x2="51.48" y2="11.71"/><line class="cls-5" x1="51.34" y1="13.89" x2="48.81" y2="13.23"/><line class="cls-5" x1="48.69" y1="15.46" x2="46.16" y2="14.79"/><line class="cls-5" x1="49.8" y1="11.26" x2="47.27" y2="10.6"/><line class="cls-5" x1="47.16" y1="12.85" x2="44.63" y2="12.18"/><line class="cls-5" x1="52.3" y1="9.72" x2="49.77" y2="9.06"/><line class="cls-5" x1="50.94" y1="7.12" x2="48.41" y2="6.46"/><line class="cls-5" x1="48.27" y1="8.65" x2="45.74" y2="7.99"/><line class="cls-5" x1="45.61" y1="10.21" x2="43.08" y2="9.55"/><line class="cls-5" x1="46.72" y1="6.02" x2="44.19" y2="5.35"/><line class="cls-5" x1="43.88" y1="7.53" x2="41.35" y2="6.87"/><line class="cls-5" x1="67.31" y1="22.3" x2="64.78" y2="21.64"/><line class="cls-5" x1="64.66" y1="23.87" x2="62.13" y2="23.21"/><line class="cls-5" x1="68.43" y1="18.14" x2="65.9" y2="17.48"/><line class="cls-5" x1="65.76" y1="19.67" x2="63.23" y2="19.01"/><line class="cls-5" x1="65.8" y1="19.73" x2="63.27" y2="19.07"/><line class="cls-5" x1="63.12" y1="21.26" x2="60.59" y2="20.6"/><line class="cls-5" x1="68.27" y1="18.13" x2="65.74" y2="17.47"/><line class="cls-5" x1="66.9" y1="15.53" x2="64.37" y2="14.87"/><line class="cls-5" x1="64.23" y1="17.06" x2="61.7" y2="16.4"/><line class="cls-5" x1="61.58" y1="18.62" x2="59.05" y2="17.96"/><line class="cls-5" x1="65.36" y1="12.9" x2="62.83" y2="12.24"/><line class="cls-5" x1="62.68" y1="14.43" x2="60.15" y2="13.77"/><line class="cls-5" x1="59.82" y1="15.91" x2="57.29" y2="15.24"/><line class="cls-5" x1="61.13" y1="11.78" x2="58.6" y2="11.12"/><line class="cls-5" x1="58.46" y1="13.31" x2="55.93" y2="12.65"/><line class="cls-5" x1="63.6" y1="10.18" x2="61.07" y2="9.52"/><line class="cls-5" x1="62.24" y1="7.58" x2="59.71" y2="6.92"/><line class="cls-5" x1="59.56" y1="9.11" x2="57.03" y2="8.45"/><line class="cls-5" x1="56.91" y1="10.67" x2="54.38" y2="10.01"/><line class="cls-5" x1="58.02" y1="6.48" x2="55.49" y2="5.82"/><line class="cls-5" x1="58.05" y1="6.54" x2="55.52" y2="5.87"/><line class="cls-5" x1="55.38" y1="8.06" x2="52.85" y2="7.4"/><line class="cls-5" x1="56.49" y1="3.87" x2="53.96" y2="3.21"/><line class="cls-5" x1="53.84" y1="5.43" x2="51.31" y2="4.77"/><line class="cls-5" x1="70.99" y1="16.68" x2="68.46" y2="16.02"/><line class="cls-5" x1="72.09" y1="12.49" x2="69.56" y2="11.83"/><line class="cls-5" x1="69.44" y1="14.05" x2="66.91" y2="13.39"/><line class="cls-5" x1="67.69" y1="11.33" x2="65.16" y2="10.67"/><line class="cls-5" x1="66.32" y1="8.73" x2="63.79" y2="8.07"/></g></g><g class="cls-10"><line class="cls-2" x1="34.9" y1="34.15" x2="32.37" y2="33.49"/><line class="cls-2" x1="44.73" y1="39.02" x2="42.2" y2="38.36"/><line class="cls-2" x1="47.21" y1="37.42" x2="44.68" y2="36.76"/><line class="cls-2" x1="45.84" y1="34.82" x2="43.31" y2="34.16"/><line class="cls-2" x1="43.17" y1="36.35" x2="40.64" y2="35.69"/><line class="cls-2" x1="40.52" y1="37.91" x2="37.99" y2="37.25"/><line class="cls-2" x1="44.29" y1="32.19" x2="41.76" y2="31.53"/><line class="cls-2" x1="41.62" y1="33.71" x2="39.09" y2="33.05"/><line class="cls-2" x1="41.66" y1="33.77" x2="39.13" y2="33.11"/><line class="cls-2" x1="38.98" y1="35.3" x2="36.45" y2="34.64"/><line class="cls-2" x1="44.13" y1="32.18" x2="41.6" y2="31.52"/><line class="cls-2" x1="42.76" y1="29.58" x2="40.23" y2="28.92"/><line class="cls-2" x1="40.09" y1="31.1" x2="37.56" y2="30.44"/><line class="cls-2" x1="37.44" y1="32.67" x2="34.91" y2="32"/><line class="cls-2" x1="41.22" y1="26.94" x2="38.69" y2="26.28"/><line class="cls-2" x1="38.54" y1="28.47" x2="36.01" y2="27.81"/><line class="cls-2" x1="35.69" y1="29.95" x2="33.15" y2="29.29"/><line class="cls-2" x1="36.99" y1="25.82" x2="34.46" y2="25.16"/><line class="cls-2" x1="34.32" y1="27.35" x2="31.79" y2="26.69"/><line class="cls-2" x1="39.46" y1="24.23" x2="36.93" y2="23.57"/><line class="cls-2" x1="38.1" y1="21.63" x2="35.57" y2="20.97"/><line class="cls-2" x1="36.55" y1="18.99" x2="34.02" y2="18.33"/><line class="cls-2" x1="36.39" y1="18.98" x2="33.86" y2="18.32"/><line class="cls-2" x1="51.48" y1="38.46" x2="48.95" y2="37.8"/><line class="cls-2" x1="52.79" y1="34.33" x2="50.26" y2="33.67"/><line class="cls-2" x1="50.12" y1="35.86" x2="47.59" y2="35.2"/><line class="cls-2" x1="55.26" y1="32.73" x2="52.73" y2="32.07"/><line class="cls-2" x1="53.9" y1="30.14" x2="51.37" y2="29.47"/><line class="cls-2" x1="51.22" y1="31.66" x2="48.69" y2="31"/><line class="cls-2" x1="48.57" y1="33.22" x2="46.04" y2="32.56"/><line class="cls-2" x1="52.35" y1="27.5" x2="49.82" y2="26.84"/><line class="cls-2" x1="49.68" y1="29.03" x2="47.15" y2="28.37"/><line class="cls-2" x1="49.71" y1="29.09" x2="47.18" y2="28.43"/><line class="cls-2" x1="47.04" y1="30.61" x2="44.51" y2="29.95"/><line class="cls-2" x1="52.18" y1="27.49" x2="49.65" y2="26.83"/><line class="cls-2" x1="50.82" y1="24.89" x2="48.29" y2="24.23"/><line class="cls-2" x1="48.15" y1="26.42" x2="45.62" y2="25.76"/><line class="cls-2" x1="45.49" y1="27.98" x2="42.96" y2="27.32"/><line class="cls-2" x1="49.27" y1="22.26" x2="46.74" y2="21.6"/><line class="cls-2" x1="46.6" y1="23.78" x2="44.07" y2="23.12"/><line class="cls-2" x1="43.74" y1="25.26" x2="41.21" y2="24.6"/><line class="cls-2" x1="45.05" y1="21.14" x2="42.52" y2="20.48"/><line class="cls-2" x1="42.38" y1="22.66" x2="39.85" y2="22"/><line class="cls-2" x1="47.52" y1="19.54" x2="44.99" y2="18.88"/><line class="cls-2" x1="46.15" y1="16.94" x2="43.62" y2="16.28"/><line class="cls-2" x1="43.48" y1="18.47" x2="40.95" y2="17.81"/><line class="cls-2" x1="40.83" y1="20.03" x2="38.3" y2="19.37"/><line class="cls-2" x1="44.61" y1="14.31" x2="42.08" y2="13.65"/><line class="cls-2" x1="41.94" y1="15.83" x2="39.41" y2="15.17"/><line class="cls-2" x1="41.97" y1="15.89" x2="39.44" y2="15.23"/><line class="cls-2" x1="39.3" y1="17.42" x2="36.77" y2="16.76"/><line class="cls-2" x1="44.44" y1="14.3" x2="41.91" y2="13.64"/><line class="cls-2" x1="43.08" y1="11.7" x2="40.55" y2="11.04"/><line class="cls-2" x1="40.4" y1="13.22" x2="37.87" y2="12.56"/><line class="cls-2" x1="37.75" y1="14.78" x2="35.22" y2="14.12"/><line class="cls-2" x1="41.53" y1="9.06" x2="39" y2="8.4"/><line class="cls-2" x1="59.35" y1="33.88" x2="56.82" y2="33.22"/><line class="cls-2" x1="60.65" y1="29.76" x2="58.12" y2="29.1"/><line class="cls-2" x1="57.98" y1="31.28" x2="55.45" y2="30.62"/><line class="cls-2" x1="63.12" y1="28.16" x2="60.59" y2="27.5"/><line class="cls-2" x1="61.76" y1="25.56" x2="59.23" y2="24.9"/><line class="cls-2" x1="59.09" y1="27.09" x2="56.56" y2="26.43"/><line class="cls-2" x1="56.43" y1="28.65" x2="53.9" y2="27.99"/><line class="cls-2" x1="60.21" y1="22.93" x2="57.68" y2="22.27"/><line class="cls-2" x1="57.54" y1="24.45" x2="55.01" y2="23.79"/><line class="cls-2" x1="57.57" y1="24.51" x2="55.04" y2="23.85"/><line class="cls-2" x1="54.9" y1="26.04" x2="52.37" y2="25.38"/><line class="cls-2" x1="60.05" y1="22.92" x2="57.52" y2="22.26"/><line class="cls-2" x1="58.68" y1="20.32" x2="56.15" y2="19.66"/><line class="cls-2" x1="56.01" y1="21.84" x2="53.48" y2="21.18"/><line class="cls-2" x1="53.36" y1="23.41" x2="50.83" y2="22.74"/><line class="cls-2" x1="57.13" y1="17.68" x2="54.6" y2="17.02"/><line class="cls-2" x1="54.46" y1="19.21" x2="51.93" y2="18.55"/><line class="cls-2" x1="51.6" y1="20.69" x2="49.07" y2="20.03"/><line class="cls-2" x1="52.91" y1="16.56" x2="50.38" y2="15.9"/><line class="cls-2" x1="50.24" y1="18.09" x2="47.71" y2="17.43"/><line class="cls-2" x1="55.38" y1="14.97" x2="52.85" y2="14.31"/><line class="cls-2" x1="54.02" y1="12.37" x2="51.48" y2="11.71"/><line class="cls-2" x1="51.34" y1="13.89" x2="48.81" y2="13.23"/><line class="cls-2" x1="48.69" y1="15.46" x2="46.16" y2="14.79"/><line class="cls-2" x1="52.47" y1="9.73" x2="49.94" y2="9.07"/><line class="cls-2" x1="49.8" y1="11.26" x2="47.27" y2="10.6"/><line class="cls-2" x1="49.83" y1="11.32" x2="47.3" y2="10.66"/><line class="cls-2" x1="47.16" y1="12.85" x2="44.63" y2="12.18"/><line class="cls-2" x1="52.3" y1="9.72" x2="49.77" y2="9.06"/><line class="cls-2" x1="50.94" y1="7.12" x2="48.41" y2="6.46"/><line class="cls-2" x1="48.27" y1="8.65" x2="45.74" y2="7.99"/><line class="cls-2" x1="45.61" y1="10.21" x2="43.08" y2="9.55"/><line class="cls-2" x1="46.72" y1="6.02" x2="44.19" y2="5.35"/><line class="cls-2" x1="43.88" y1="7.53" x2="41.35" y2="6.87"/><line class="cls-2" x1="67.31" y1="22.3" x2="64.78" y2="21.64"/><line class="cls-2" x1="64.66" y1="23.87" x2="62.13" y2="23.21"/><line class="cls-2" x1="68.43" y1="18.14" x2="65.9" y2="17.48"/><line class="cls-2" x1="65.76" y1="19.67" x2="63.23" y2="19.01"/><line class="cls-2" x1="65.8" y1="19.73" x2="63.27" y2="19.07"/><line class="cls-2" x1="63.12" y1="21.26" x2="60.59" y2="20.6"/><line class="cls-2" x1="68.27" y1="18.13" x2="65.74" y2="17.47"/><line class="cls-2" x1="66.9" y1="15.53" x2="64.37" y2="14.87"/><line class="cls-2" x1="64.23" y1="17.06" x2="61.7" y2="16.4"/><line class="cls-2" x1="61.58" y1="18.62" x2="59.05" y2="17.96"/><line class="cls-2" x1="65.36" y1="12.9" x2="62.83" y2="12.24"/><line class="cls-2" x1="62.68" y1="14.43" x2="60.15" y2="13.77"/><line class="cls-2" x1="59.82" y1="15.91" x2="57.29" y2="15.24"/><line class="cls-2" x1="61.13" y1="11.78" x2="58.6" y2="11.12"/><line class="cls-2" x1="58.46" y1="13.31" x2="55.93" y2="12.65"/><line class="cls-2" x1="63.6" y1="10.18" x2="61.07" y2="9.52"/><line class="cls-2" x1="62.24" y1="7.58" x2="59.71" y2="6.92"/><line class="cls-2" x1="59.56" y1="9.11" x2="57.03" y2="8.45"/><line class="cls-2" x1="56.91" y1="10.67" x2="54.38" y2="10.01"/><line class="cls-2" x1="58.02" y1="6.48" x2="55.49" y2="5.82"/><line class="cls-2" x1="58.05" y1="6.54" x2="55.52" y2="5.87"/><line class="cls-2" x1="55.38" y1="8.06" x2="52.85" y2="7.4"/><line class="cls-2" x1="56.49" y1="3.87" x2="53.96" y2="3.21"/><line class="cls-2" x1="53.84" y1="5.43" x2="51.31" y2="4.77"/><line class="cls-2" x1="70.99" y1="16.68" x2="68.46" y2="16.02"/><line class="cls-2" x1="72.09" y1="12.49" x2="69.56" y2="11.83"/><line class="cls-2" x1="69.44" y1="14.05" x2="66.91" y2="13.39"/><line class="cls-2" x1="67.69" y1="11.33" x2="65.16" y2="10.67"/><line class="cls-2" x1="66.32" y1="8.73" x2="63.79" y2="8.07"/></g><line id="SVGID-9" data-name="SVGID" class="cls-2" x1="37.31" y1="33" x2="67.44" y2="15.68"/><polygon class="cls-2" points="67.44 33 67.44 15.68 52.37 7.02 37.31 15.68 37.31 33 52.37 41.66 67.44 33"/><polygon class="cls-2" points="52.37 58.98 52.37 41.66 37.31 33 22.25 41.66 22.25 58.98 37.31 67.64 52.37 58.98"/><polygon class="cls-2" points="37.31 33 37.31 15.68 22.25 7.02 7.18 15.68 7.18 33 22.25 41.66 37.31 33"/></svg>