<svg width="193" height="215" xmlns="http://www.w3.org/2000/svg" xmlns:xlink="http://www.w3.org/1999/xlink" xml:space="preserve" overflow="hidden"><g transform="translate(-521 -247)"><path d="M159.134 384.224C161.989 385.524 179.771 401.291 183.682 404.418 174.079 422.858 155.358 438.077 136.484 446.335L126.731 450.027 115.56 420.587C136.917 414.066 148.567 403.479 159.134 384.224Z" fill="#8793AB" transform="matrix(1.00131 0 0 1 521 0.0202162)"/><path d="M126.953 261.462C150.16 268.624 172.143 285.316 183.63 306.885 178.35 310.9 172.152 316.379 166.978 320.711 164.905 322.64 161.615 325.186 159.304 327.214 157.992 324.823 156.636 322.458 155.237 320.118 146.847 306.326 131.585 294.511 115.839 290.686 119.248 281.356 123.122 270.622 126.953 261.462Z" fill="#8793AB" transform="matrix(1.00131 0 0 1 521 0.0202162)"/><path d="M0 348.339C1.10538 342.279 1.39917 337.909 2.99973 331.706 8.78555 308.616 22.7681 288.416 42.3433 274.867 62.5331 260.908 89.7946 254.172 114.032 258.687L114.144 258.708C110.454 268.813 106.637 278.871 102.692 288.879 85.3501 287.612 68.2085 293.242 54.9957 304.544 42.2058 315.541 36.1012 327.391 32.24 343.523 47.2577 343.237 62.3389 343.667 77.3623 343.453 78.7409 343.433 80.2034 343.404 81.5763 343.308L71.856 370.462 47.2522 370.427C42.9072 370.424 37.0014 370.273 32.7718 370.593 41.9851 403.947 67.5498 424.195 102.603 422.976 106.493 432.397 110.705 443.433 114.172 453.09 84.7142 456.112 59.8241 451.411 36.2399 432.194 19.6439 418.68 7.90911 400.124 2.81551 379.34 1.56876 374.398 0.959453 366.973 0 363.49L0 348.339Z" fill="#3F4E69" transform="matrix(1.00131 0 0 1 521 0.0202162)"/></g></svg>